PathFileType	4	(X/Y/Z)	D:/Ayumi_testdata/Ayumi_25_09_2024/motion/sumo_dl_80kg00/markers_experimental.trc	
DataRate	CameraRate	NumFrames	NumMarkers	Units	OrigDataRate	OrigDataStartFrame	OrigNumFrames	
200.00	200.00	5	52	mm	200.00	2351	2164	
Frame#	Time	RSACR			LSACR			USACR			LBAR			RBAR			RHEE			RMT1			RMT5			RMT2			LHEE			LMT1			LMT5			LMT2			LMMAL			LLMAL			LTIB4			LTIB2			LTIB3			LTIB1			RMMAL			RLMAL			RTIB1			RTIB2			RTIB3			RTHI1			RTHI4			RTHI3			RTHI2			LTHI1			LTHI4			LTHI3			LTHI2			FHD			LBHD			RBHD			C7			T10			CLAV			LSHO			RSHO			LRAD			LUL			LRFIN			RRAD			RUL			RUFIN			LDUPA			LMUPA			LUUPA			RDUPA			RUUPA			RMUPA			
		X1	Y1	Z1	X2	Y2	Z2	X3	Y3	Z3	X4	Y4	Z4	X5	Y5	Z5	X6	Y6	Z6	X7	Y7	Z7	X8	Y8	Z8	X9	Y9	Z9	X10	Y10	Z10	X11	Y11	Z11	X12	Y12	Z12	X13	Y13	Z13	X14	Y14	Z14	X15	Y15	Z15	X16	Y16	Z16	X17	Y17	Z17	X18	Y18	Z18	X19	Y19	Z19	X20	Y20	Z20	X21	Y21	Z21	X22	Y22	Z22	X23	Y23	Z23	X24	Y24	Z24	X25	Y25	Z25	X26	Y26	Z26	X27	Y27	Z27	X28	Y28	Z28	X29	Y29	Z29	X30	Y30	Z30	X31	Y31	Z31	X32	Y32	Z32	X33	Y33	Z33	X34	Y34	Z34	X35	Y35	Z35	X36	Y36	Z36	X37	Y37	Z37	X38	Y38	Z38	X39	Y39	Z39	X40	Y40	Z40	X41	Y41	Z41	X42	Y42	Z42	X43	Y43	Z43	X44	Y44	Z44	X45	Y45	Z45	X46	Y46	Z46	X47	Y47	Z47	X48	Y48	Z48	X49	Y49	Z49	X50	Y50	Z50	X51	Y51	Z51	X52	Y52	Z52	

1894	9.465	498.80502	956.65491	717.28564	497.35709	898.81268	721.14471	480.67545	928.32172	723.55975	229.90317	-194.30815	250.88603	214.96370	2026.91821	243.68340	291.21048	1391.05139	32.80467	129.93446	1501.39893	44.81444	195.81412	1549.09412	28.02918	159.08231	1530.15503	42.08030	332.66339	478.16580	43.12518	165.39554	382.00308	49.65464	228.84898	333.08813	30.05536	190.64166	352.12357	46.84610	271.89941	491.63058	71.35899	310.45544	418.69550	70.92018	313.79050	459.59763	209.41673	293.16776	458.41394	271.98526	334.61398	486.69775	265.92267	326.52710	490.09451	305.82443	240.97598	1389.71619	65.20262	286.10971	1451.90796	69.34294	290.00394	1396.01025	311.65759	331.31476	1373.41162	292.41849	299.24393	1407.47668	247.92155	505.10883	1129.04431	612.96088	404.54910	1221.38440	554.49445	436.71402	1227.53979	514.58508	460.77899	1187.39001	560.72809	503.18387	723.83191	616.18188	391.84680	632.13135	561.46637	429.42743	631.13983	525.64722	442.78201	669.65723	577.74402	-127.63223	790.26752	953.61377	-76.22919	832.31561	1045.28003	-87.56436	954.89484	1025.09973	105.68441	901.13287	935.57031	432.84525	925.79315	750.02850	75.62277	907.06342	797.53259	98.82611	728.14178	859.13831	68.19388	1055.92480	838.48151	187.73889	694.84229	327.77649	185.48108	654.23376	328.68103	185.72903	709.59363	241.48759	184.59723	1140.60486	321.86865	184.75113	1188.76453	323.77145	179.28403	1129.12939	237.35970	128.53859	716.37494	631.11212	154.64345	678.04211	613.46332	131.98697	693.65259	687.63342	124.08025	1079.24280	588.41394	111.73934	1108.58081	661.73840	130.15448	1126.33252	604.55591 
1895	9.470	498.71643	956.75018	717.34570	497.28757	898.91693	721.19897	480.59183	928.41284	723.59338	229.89236	-194.15863	250.61960	215.00446	2026.80701	243.63200	291.18918	1391.05457	32.80533	129.93257	1501.40662	44.83153	195.83748	1549.08813	28.03539	159.09097	1530.16492	42.08274	332.64377	478.15625	43.14409	165.41943	381.98349	49.65842	228.88326	333.09488	30.07405	190.66536	352.09570	46.85653	271.89175	491.62045	71.34799	310.48285	418.65909	70.92825	313.49625	459.65576	209.51334	293.18179	458.25027	272.06555	334.51184	486.68466	265.96146	326.38376	490.07278	305.82776	240.94933	1389.71375	65.21510	286.10989	1451.91980	69.35367	290.02750	1396.03931	311.65842	331.26212	1373.39099	292.41653	298.45502	1407.17322	247.89523	505.00208	1129.13782	612.97314	404.41766	1221.49426	554.51544	436.18759	1228.06396	514.87579	460.70197	1187.47034	560.69098	503.15274	723.90015	616.20093	391.84247	632.17957	561.45190	429.41147	631.22681	525.62012	442.77081	669.70862	577.73492	-127.85795	790.40521	953.62122	-76.39209	832.37823	1045.28870	-87.66734	954.99060	1025.13428	105.49335	901.20197	935.56299	432.73535	925.85626	750.09332	75.47981	907.14508	797.51624	98.58249	728.25610	859.15021	68.02942	1055.97766	838.46167	187.66713	694.91473	327.76056	185.42386	654.30280	328.64975	185.67763	709.69977	241.47604	184.49611	1140.74939	321.86606	184.67899	1188.91052	323.75937	179.23537	1129.26501	237.33560	128.26784	716.50372	631.12408	154.27156	678.09430	613.47540	131.61824	693.73083	687.63623	123.91023	1079.30444	588.39661	111.52486	1108.62329	661.69574	129.93927	1126.37939	604.56946 
1896	9.475	498.62689	956.83337	717.39526	497.21573	899.04114	721.25842	480.48779	928.48633	723.64276	229.88194	-194.03891	250.51593	214.94835	2026.92493	243.63606	291.16895	1391.06787	32.81824	129.92155	1501.40039	44.82892	195.87207	1549.07544	28.01255	159.09447	1530.16821	42.08863	332.62497	478.13199	43.13846	165.44171	381.95166	49.67110	228.91278	333.07938	30.08757	190.69797	352.07034	46.85774	271.86990	491.61063	71.34277	310.47412	418.62424	70.88778	313.57242	459.57501	209.47375	293.02942	458.30405	272.03244	334.14948	486.70297	265.84793	326.53781	489.92389	305.93976	240.92482	1389.69763	65.21043	286.07095	1451.93921	69.35913	289.99185	1396.05884	311.64218	331.22391	1373.32251	292.40149	299.06488	1407.29199	247.62497	504.85855	1129.23572	612.99146	404.28171	1221.60071	554.53436	436.05524	1228.18396	514.89374	460.59503	1187.56409	560.67273	503.11685	723.93976	616.20471	391.83093	632.21466	561.42926	429.38132	631.26312	525.59991	442.75912	669.76715	577.70782	-128.07527	790.53241	953.62720	-76.57288	832.46698	1045.27356	-87.77429	955.08289	1025.16821	105.30724	901.26202	935.55878	432.60333	925.91760	750.14899	75.33663	907.21936	797.51318	98.35941	728.35748	859.15613	67.86977	1056.07007	838.46985	187.61684	694.96283	327.75793	185.37323	654.36487	328.63214	185.63644	709.79907	241.48090	184.40210	1140.87146	321.82504	184.57268	1189.01904	323.75540	179.18159	1129.38123	237.32202	127.97710	716.61621	631.08533	153.91620	678.16913	613.42432	131.23752	693.85364	687.58948	123.75683	1079.36145	588.39001	111.32931	1108.67712	661.69067	129.73894	1126.47791	604.51691 
1897	9.480	498.52750	956.92474	717.47736	497.12131	899.12854	721.32629	480.39432	928.56946	723.70288	229.85899	-193.95741	250.59641	214.81703	2027.22583	243.64354	291.18155	1391.05249	32.83921	129.92271	1501.39978	44.84943	195.84282	1549.08386	28.02453	159.08138	1530.16345	42.10969	332.62335	478.12952	43.16352	165.46927	381.91498	49.67737	228.94359	333.06375	30.10460	190.72469	352.04367	46.85541	271.87018	491.60245	71.34782	310.48529	418.60150	70.92186	313.49152	459.56689	209.47507	292.90067	458.33182	272.04306	334.31598	486.61029	265.97342	326.40808	489.88992	305.94235	240.90492	1389.69226	65.23006	286.12967	1451.92188	69.37403	290.00742	1396.11096	311.62701	331.17886	1373.28491	292.39957	299.27084	1407.05176	247.90271	504.74109	1129.34497	613.02612	404.16806	1221.69092	554.52704	436.37802	1227.83643	514.61200	460.39572	1187.69519	560.88629	503.08188	723.99628	616.24237	391.82843	632.25226	561.42792	429.36929	631.33514	525.58459	442.73450	669.80792	577.72797	-128.28123	790.68030	953.64484	-76.71815	832.53296	1045.29175	-87.88348	955.16650	1025.20178	105.11604	901.31226	935.57190	432.48840	925.98627	750.25043	75.17171	907.29126	797.51953	98.16843	728.43298	859.16821	67.72988	1056.17249	838.48041	187.41031	695.02289	327.87280	185.32043	654.42438	328.64389	185.58775	709.90265	241.49184	184.33731	1141.00073	321.82281	184.52263	1189.13147	323.75031	179.12199	1129.49646	237.31894	127.76131	716.76764	631.07220	153.57059	678.25146	613.38928	130.93080	693.93835	687.54645	123.57500	1079.43298	588.42468	111.15047	1108.79797	661.68951	129.56070	1126.54053	604.49219 
1898	9.485	498.42770	957.01141	717.55908	497.00070	899.22809	721.38708	480.31644	928.66510	723.80121	229.69957	-193.59462	250.69319	214.80716	2027.12903	243.59128	291.16940	1391.05688	32.84662	129.94487	1501.39490	44.84887	195.83012	1549.09033	28.03745	159.09155	1530.16394	42.11774	332.61545	478.11749	43.17543	165.46976	381.88730	49.68472	228.97020	333.03674	30.10782	190.75508	352.02551	46.85595	271.85629	491.60669	71.34957	310.45105	418.60529	70.90094	313.37921	459.60431	209.43242	292.81909	458.27646	272.03967	334.24469	486.59879	266.00232	326.28879	489.85760	305.93411	240.88579	1389.68762	65.23262	286.07776	1451.92285	69.37246	290.00079	1396.15784	311.61108	331.09827	1373.20776	292.39938	299.09695	1407.25964	247.57735	504.61816	1129.44775	613.04425	404.06531	1221.81689	554.56525	435.82828	1228.41553	514.91681	460.38492	1187.79504	560.78223	503.04132	724.06909	616.27991	391.79611	632.29755	561.42053	429.32190	631.41620	525.57782	442.69141	669.85388	577.73071	-128.50180	790.79260	953.67566	-76.90933	832.61078	1045.29175	-87.99081	955.24463	1025.23254	104.92448	901.38330	935.59064	432.36569	926.05737	750.35205	75.02457	907.33392	797.53009	97.95258	728.49237	859.17523	67.56347	1056.25928	838.48755	187.35217	695.08295	327.88156	185.25374	654.48236	328.66663	185.53075	710.00781	241.52176	184.25906	1141.11658	321.83020	184.48160	1189.23145	323.78491	179.02173	1129.63367	237.32910	127.53326	716.93530	631.06848	153.20645	678.35895	613.36066	130.59926	694.03339	687.50952	123.37169	1079.48877	588.44495	110.95423	1108.91357	661.70618	129.36856	1126.63770	604.49377 
